# File created by Blade
# Date/Time:  Mon Sep 22 21:09:19 2014
# Frame Rate: 120.000 fps
#------------------------------------------------------
:FULLY-SPECIFIED
:DEGREES
2370
root 1.270710 32.417749 -8.777749 28.915457 -19.539782 -23.292367
Spine -28.016496 -8.015709 12.360567
Head 3.234975 -12.355496 8.244076
LeftShoulder -0.069844 40.191052 27.459104
LeftArm 89.112160 28.943690 -39.286652
LeftForeArm -34.132542 -0.000000 73.491252
LeftHand -27.393280 -0.000000 -1.159694
LeftHandThumb1 -26.253704 0.000000 33.147579
RightShoulder -6.115129 -50.517883 -15.950513
RightArm 65.335230 -14.401354 48.594181
RightForeArm 64.506302 -0.000000 72.289121
RightHand 4.036515 0.000000 24.757856
RightHandThumb1 -24.326973 -0.000000 -32.862282
LeftUpLeg -33.501599 9.863395 16.972747
LeftLeg 34.446537 -0.000000 -0.000000
LeftFoot -24.030832 -10.534981 -2.662750
LeftToeBase 9.383817 -0.000000 -0.000000
RightUpLeg -152.039071 -6.643722 11.853460
RightLeg 99.521302 -0.000000 -0.000000
RightFoot 39.247894 -14.445883 4.873950
RightToeBase 45.025377 -0.000000 -0.000000
2371
root 1.291794 32.421498 -8.842108 29.203761 -19.176595 -23.255473
Spine -28.231382 -8.186521 12.360551
Head 2.955625 -12.532789 7.924774
LeftShoulder -0.023993 40.247792 27.396813
LeftArm 89.079612 28.830448 -39.368097
LeftForeArm -34.118420 -0.000000 73.378370
LeftHand -27.572551 0.000000 -1.143057
LeftHandThumb1 -26.253704 0.000000 33.147579
RightShoulder -6.208588 -50.531640 -15.700325
RightArm 65.399511 -14.351545 48.769063
RightForeArm 64.304682 -0.000000 72.168217
RightHand 3.989655 -0.000000 24.461055
RightHandThumb1 -24.326973 -0.000000 -32.862282
LeftUpLeg -33.940530 9.442194 17.040957
LeftLeg 34.217463 -0.000000 -0.000000
LeftFoot -24.193455 -9.885464 -3.099228
LeftToeBase 9.585872 -0.000000 -0.000000
RightUpLeg -152.123929 -6.829114 11.821950
RightLeg 98.685319 -0.000000 -0.000000
RightFoot 39.117956 -14.492934 4.703496
RightToeBase 45.032915 -0.000000 -0.000000
2372
root 1.308514 32.433561 -8.899971 29.372598 -18.851910 -23.240237
Spine -28.306263 -8.372631 12.364509
Head 2.638749 -12.673601 7.640073
LeftShoulder 0.020529 40.284360 27.361806
LeftArm 89.004292 28.749704 -39.496540
LeftForeArm -34.081200 0.000000 73.231729
LeftHand -27.581975 -0.000000 -1.257128
LeftHandThumb1 -26.253704 0.000000 33.147579
RightShoulder -6.290438 -50.518299 -15.422686
RightArm 65.444606 -14.306411 48.931709
RightForeArm 64.173189 -0.000000 72.037699
RightHand 3.881425 -0.000000 24.266036
RightHandThumb1 -24.326973 -0.000000 -32.862282
LeftUpLeg -34.365655 9.182583 17.149135
LeftLeg 34.238300 -0.000000 -0.000000
LeftFoot -24.177923 -9.436150 -3.862500
LeftToeBase 9.169429 -0.000000 -0.000000
RightUpLeg -152.083494 -6.986241 11.736381
RightLeg 97.940356 -0.000000 -0.000000
RightFoot 39.023595 -14.606832 4.648195
RightToeBase 45.005121 -0.000000 -0.000000
2373
root 1.323180 32.450396 -8.953756 29.462511 -18.601217 -23.251590
Spine -28.255132 -8.497493 12.356574
Head 2.284438 -12.797869 7.310629
LeftShoulder 0.032923 40.328045 27.320216
LeftArm 88.933393 28.679807 -39.649697
LeftForeArm -34.088987 0.000000 73.112237
LeftHand -27.643832 -0.000000 -1.266652
LeftHandThumb1 -26.253704 0.000000 33.147579
RightShoulder -6.459363 -50.534007 -15.113266
RightArm 65.569837 -14.294658 49.051294
RightForeArm 64.139916 -0.000000 71.891069
RightHand 3.683714 0.000000 24.501789
RightHandThumb1 -24.326973 -0.000000 -32.862282
LeftUpLeg -34.724481 9.117782 17.257672
LeftLeg 34.397385 -0.000000 -0.000000
LeftFoot -24.118234 -9.517139 -4.677881
LeftToeBase 8.057514 -0.000000 -0.000000
RightUpLeg -151.943277 -7.028993 11.674208
RightLeg 97.245781 -0.000000 -0.000000
RightFoot 38.993852 -14.944786 4.604329
RightToeBase 45.002759 -0.000000 -0.000000
2374
root 1.330714 32.472865 -9.006896 29.535958 -18.409826 -23.393125
Spine -28.121667 -8.553969 12.421653
Head 1.911093 -12.879851 7.042729
LeftShoulder 0.033118 40.396450 27.352059
LeftArm 88.936184 28.571019 -39.676901
LeftForeArm -34.156368 -0.000000 73.050073
LeftHand -27.692740 -0.000000 -1.185102
LeftHandThumb1 -26.253704 0.000000 33.147579
RightShoulder -6.584665 -50.581744 -14.857536
RightArm 65.712856 -14.288891 49.183538
RightForeArm 64.074541 -0.000000 71.787098
RightHand 3.706643 -0.000000 24.397484
RightHandThumb1 -24.326973 -0.000000 -32.862282
LeftUpLeg -34.954157 9.246446 17.459639
LeftLeg 34.531474 -0.000000 -0.000000
LeftFoot -24.152453 -9.892144 -5.660823
LeftToeBase 6.788031 -0.000000 -0.000000
RightUpLeg -151.722759 -6.985036 11.660740
RightLeg 96.640697 -0.000000 -0.000000
RightFoot 38.997251 -15.114875 4.672342
RightToeBase 44.888515 -0.000000 -0.000000
2375
root 1.332386 32.499394 -9.052114 29.589748 -18.268766 -23.558507
Spine -27.973252 -8.579054 12.475060
Head 1.558508 -12.919775 6.807209
LeftShoulder 0.048197 40.425317 27.461829
LeftArm 88.916893 28.578010 -39.713837
LeftForeArm -34.349829 -0.000000 73.050155
LeftHand -27.723130 -0.000000 -0.699292
LeftHandThumb1 -26.253704 0.000000 33.147579
RightShoulder -6.686342 -50.635674 -14.655169
RightArm 65.842860 -14.323589 49.340526
RightForeArm 63.836546 -0.000000 71.710281
RightHand 3.654926 -0.000000 24.162623
RightHandThumb1 -24.326973 -0.000000 -32.862282
LeftUpLeg -35.052739 9.501011 17.640621
LeftLeg 34.509726 -0.000000 -0.000000
LeftFoot -24.159187 -9.955441 -6.098443
LeftToeBase 5.107004 -0.000000 -0.000000
RightUpLeg -151.488388 -6.895862 11.613785
RightLeg 96.133644 -0.000000 -0.000000
RightFoot 39.004601 -15.296290 4.778550
RightToeBase 44.864635 -0.000000 -0.000000
2376
root 1.335426 32.527277 -9.093532 29.595401 -18.129446 -23.702406
Spine -27.792807 -8.658238 12.540319
Head 1.221452 -12.905267 6.585592
LeftShoulder 0.080141 40.352802 27.614262
LeftArm 88.757052 28.626556 -39.857349
LeftForeArm -34.327209 -0.000000 73.013802
LeftHand -27.622107 -0.000000 -0.828230
LeftHandThumb1 -26.253704 0.000000 33.147579
RightShoulder -6.665560 -50.644587 -14.593365
RightArm 65.930781 -14.359798 49.519133
RightForeArm 63.781194 -0.000000 71.604899
RightHand 3.510844 -0.000000 24.418444
RightHandThumb1 -24.326973 -0.000000 -32.862282
LeftUpLeg -35.017674 9.738175 17.756985
LeftLeg 34.318410 -0.000000 -0.000000
LeftFoot -24.154555 -9.732586 -6.656416
LeftToeBase 3.544938 -0.000000 -0.000000
RightUpLeg -151.266290 -6.806920 11.620901
RightLeg 95.738723 -0.000000 -0.000000
RightFoot 38.981050 -15.468194 4.926270
RightToeBase 44.914890 -0.000000 -0.000000
2377
root 1.341973 32.557985 -9.128850 29.606876 -18.034266 -23.820022
Spine -27.628514 -8.727721 12.588194
Head 0.866087 -12.838686 6.372953
LeftShoulder 0.125106 40.312688 27.780426
LeftArm 88.590027 28.641403 -39.972873
LeftForeArm -34.423813 -0.000000 73.055837
LeftHand -27.605976 -0.000000 -0.879639
LeftHandThumb1 -26.253704 0.000000 33.147579
RightShoulder -6.622206 -50.582557 -14.578087
RightArm 65.961971 -14.443261 49.657256
RightForeArm 63.705948 0.000000 71.538282
RightHand 3.442695 0.000000 24.420097
RightHandThumb1 -24.326973 -0.000000 -32.862282
LeftUpLeg -34.882168 9.961684 17.820220
LeftLeg 33.947624 -0.000000 -0.000000
LeftFoot -24.261324 -9.095413 -7.175728
LeftToeBase 2.581659 -0.000000 -0.000000
RightUpLeg -151.078473 -6.676764 11.611408
RightLeg 95.420696 -0.000000 -0.000000
RightFoot 38.948559 -15.694609 5.019949
RightToeBase 44.836063 -0.000000 -0.000000
2378
root 1.353118 32.592578 -9.154002 29.625713 -17.885645 -23.849765
Spine -27.546632 -8.876690 12.626081
Head 0.559474 -12.802776 6.187957
LeftShoulder 0.192325 40.333733 27.926262
LeftArm 88.467799 28.621188 -40.075481
LeftForeArm -34.491119 -0.000000 73.073857
LeftHand -27.555313 0.000000 -1.007361
LeftHandThumb1 -26.253704 0.000000 33.147579
RightShoulder -6.584885 -50.519023 -14.583528
RightArm 65.983135 -14.533739 49.690612
RightForeArm 63.536213 0.000000 71.529360
RightHand 3.462273 0.000000 24.191037
RightHandThumb1 -24.326973 -0.000000 -32.862282
LeftUpLeg -34.733945 10.029106 17.793394
LeftLeg 33.456161 -0.000000 -0.000000
LeftFoot -24.413936 -7.711673 -6.651226
LeftToeBase 1.423934 -0.000000 -0.000000
RightUpLeg -151.003141 -6.623336 11.607119
RightLeg 95.252648 -0.000000 -0.000000
RightFoot 38.834331 -15.925782 5.071055
RightToeBase 44.707421 -0.000000 -0.000000
2379
root 1.373582 32.631133 -9.182435 29.753534 -17.720907 -23.866025
Spine -27.583181 -9.087512 12.755745
Head 0.227370 -12.657255 5.962612
LeftShoulder 0.193117 40.258767 27.992081
LeftArm 88.255638 28.660208 -40.182424
LeftForeArm -34.463786 -0.000000 73.124383
LeftHand -27.441133 -0.000000 -1.175012
LeftHandThumb1 -26.253704 0.000000 33.147579
RightShoulder -6.460239 -50.386189 -14.695269
RightArm 66.007152 -14.618901 49.699785
RightForeArm 63.416019 -0.000000 71.457111
RightHand 3.393158 -0.000000 24.333311
RightHandThumb1 -24.326973 -0.000000 -32.862282
LeftUpLeg -34.690132 10.092309 17.732381
LeftLeg 32.965324 -0.000000 -0.000000
LeftFoot -24.749456 -5.766475 -6.276225
LeftToeBase 1.202058 -0.000000 -0.000000
RightUpLeg -151.039266 -6.582977 11.662451
RightLeg 95.108136 -0.000000 -0.000000
RightFoot 38.696433 -16.299046 5.282955
RightToeBase 44.753644 -0.000000 -0.000000
2380
root 1.396551 32.670625 -9.214646 30.049088 -17.567132 -23.932842
Spine -27.737759 -9.180430 12.936159
Head -0.183487 -12.624546 5.737633
LeftShoulder 0.175796 40.209194 28.048864
LeftArm 88.189044 28.650125 -40.162625
LeftForeArm -34.473217 0.000000 73.196034
LeftHand -27.282706 -0.000000 -1.160196
LeftHandThumb1 -26.253704 0.000000 33.147579
RightShoulder -6.482049 -50.239657 -14.722792
RightArm 66.003731 -14.688447 49.675907
RightForeArm 63.158592 -0.000000 71.466773
RightHand 3.401944 -0.000000 24.169052
RightHandThumb1 -24.326973 -0.000000 -32.862282
LeftUpLeg -34.833964 10.240597 17.658249
LeftLeg 32.564874 -0.000000 -0.000000
LeftFoot -25.090658 -3.217533 -6.113576
LeftToeBase 1.544500 -0.000000 -0.000000
RightUpLeg -151.230854 -6.449178 11.808897
RightLeg 95.024563 -0.000000 -0.000000
RightFoot 38.588791 -16.655568 5.316875
RightToeBase 44.746114 -0.000000 -0.000000
